<svg xmlns="http://www.w3.org/2000/svg"  fill="green" viewBox="-100 -100 300 300" ><path d="M121.693 119.943H8.057V6.307a1.75 1.75 0 0 0-3.5 0v115.386a1.749 1.749 0 0 0 1.75 1.75h115.386a1.75 1.75 0 0 0 0-3.5z"/><path d="M16.8 112.946h94.4a1.749 1.749 0 0 0 1.75-1.75V49.4a1.75 1.75 0 0 0-1.75-1.75H89.349V16.8a1.75 1.75 0 0 0-1.75-1.75H64a1.749 1.749 0 0 0-1.75 1.75v14.551H40.4a1.75 1.75 0 0 0-1.75 1.75v30.843H16.8a1.75 1.75 0 0 0-1.75 1.75v45.5a1.749 1.749 0 0 0 1.75 1.752zm92.642-61.8v58.3h-20.1v-58.3zM65.75 18.554h20.1v90.892h-20.1zm-23.6 16.3h20.1v74.6h-20.1zm-23.6 32.593h20.1v42h-20.1z"/></svg>