<svg xmlns="http://www.w3.org/2000/svg" viewBox="-50 -50 300 300"  xml:space="preserve"><path fill="green" d="M129.634 75.098c-.7 0-1.4-.4-1.8-1.1-.5-1-.1-2.2.8-2.7l17.4-9.1c1-.5 2.2-.1 2.7.8.5 1 .1 2.2-.8 2.7l-17.4 9.1c-.3.2-.6.3-.9.3zM111.034 102.498c-.3 0-.5-.1-.8-.2-1-.4-1.5-1.6-1-2.6l6.5-14.5c.5-1 1.6-1.5 2.6-1 1 .4 1.5 1.6 1 2.6l-6.5 14.5c-.3.7-1 1.2-1.8 1.2zM84.134 121.298c-.8 0-1.5-.4-1.8-1.2-.4-1 0-2.2 1-2.6l14.5-6.5c1-.4 2.2 0 2.6 1s0 2.2-1 2.6l-14.5 6.5c-.2.1-.5.2-.8.2zM64.63 148.198c-.3 0-.6-.1-.9-.2-1-.5-1.4-1.7-1-2.7l7.1-14.6c.5-1 1.7-1.4 2.7-1 1.004.5 1.404 1.7 1.004 2.7l-6.904 14.6c-.5.8-1.2 1.2-2 1.2z"/><path fill="green" d="M75.634 134.498c-6.304 0-11.404-5.1-11.404-11.4 0-6.3 5.1-11.4 11.404-11.4 6.3 0 11.4 5.1 11.4 11.4 0 6.3-5.2 11.4-11.4 11.4zm0-18.8a7.384 7.384 0 0 0-7.404 7.4c0 4.1 3.3 7.4 7.404 7.4 4.1 0 7.4-3.3 7.4-7.4 0-4.1-3.4-7.4-7.4-7.4zM107.234 120.398c-6.3 0-11.4-5.1-11.4-11.4s5.1-11.4 11.4-11.4c6.3 0 11.4 5.1 11.4 11.4s-5.1 11.4-11.4 11.4zm0-18.7c-4.1 0-7.4 3.3-7.4 7.4 0 4.1 3.3 7.4 7.4 7.4 4.1 0 7.4-3.3 7.4-7.4 0-4.1-3.3-7.4-7.4-7.4zM121.334 88.798c-6.3 0-11.4-5.1-11.4-11.4s5.1-11.4 11.4-11.4c6.3 0 11.4 5.1 11.4 11.4 0 6.2-5.1 11.4-11.4 11.4zm0-18.8c-4.1 0-7.4 3.3-7.4 7.4 0 4.1 3.3 7.4 7.4 7.4s7.4-3.3 7.4-7.4c0-4.1-3.3-7.4-7.4-7.4z"/><path fill="green" d="M141.834 148.698H53.33c-1.1 0-2-.9-2-2s.9-2 2-2h88.504c1.9 0 3.5-1.6 3.5-3.5v-88.5c0-1.1.9-2 2-2s2 .9 2 2v88.5c0 4.1-3.4 7.5-7.5 7.5z"/></svg>