<svg version="1.1" id="icons" xmlns="http://www.w3.org/2000/svg" x="0" y="0" fill="green" viewBox="-100 -100 300 300"  xml:space="preserve"><style>.st0,.st1{fill:green}.st1,.st2{fill-rule:evenodd;clip-rule:evenodd}.st2,.st3{fill:green}</style><g id="row1"><g id="nav:3_3_"><circle class="st2" cx="16.7" cy="81.5" r="4.6"/><circle class="st2" cx="113.7" cy="49.4" r="4.6"/><path class="st3" d="M82.9 76.4c-1.6 0-3.1-.2-4.5-.6l1-3.5c1.4.4 3.2.5 4.8.4l.3 3.6c-.5.1-1 .1-1.6.1zm7.6-1.8-1.8-3.2c1.3-.7 2.4-1.7 3.4-3.1l3 2.1c-1.3 1.9-2.8 3.2-4.6 4.2zM20.3 74l-3.6-1c.5-1.8 1.1-3.6 1.7-5.3l3.5 1.3c-.6 1.5-1.1 3.2-1.6 5zm52.6-1.2c-1.3-1.2-2.6-2.7-3.8-4.6l3.1-2c1.1 1.6 2.1 2.9 3.2 3.8l-2.5 2.8zM98 65.4l-3.4-1.5c.3-.7.7-1.5 1-2.2.4-.9.8-1.9 1.3-2.8l3.3 1.6-1.2 2.7c-.3.7-.6 1.4-1 2.2zm-74-1.3-3.3-1.6c.9-1.8 1.8-3.4 2.8-5l3.1 1.9c-1 1.5-1.8 3-2.6 4.7zm42.3-.7-.4-.7c-.7-1.3-1.5-2.7-2.3-4l3.2-1.8c.8 1.4 1.6 2.8 2.3 4.2l.4.7-3.2 1.6zm36.6-7.3-3-2.2c1.4-1.8 2.9-3.1 4.6-4.1l1.8 3.2c-1.2.7-2.4 1.7-3.4 3.1zm-73.2-.7L26.9 53c1.3-1.5 2.8-2.8 4.3-4l2.2 2.9c-1.3 1-2.6 2.1-3.7 3.5zm31-1c-1.1-1.4-2.3-2.5-3.6-3.4l2.2-3c1.6 1.1 3 2.4 4.3 4.1l-2.9 2.3zm-22.9-5L36.3 46c1.8-.8 3.8-1.3 5.8-1.6l.5 3.6c-1.7.3-3.3.7-4.8 1.4zm14.9-.6c-1.5-.5-3.2-.8-5-.9l.3-3.6c2.1.2 4.1.5 5.8 1.1l-1.1 3.4z"/><path id="nav:3_1_" class="st3" d="M94.8 14.3 64.1 26.8 33.2 14.3 0 27.8v85.1l33.2-13.4 30.4 12.3 31.2-11.5 33.2 13.6v-86L94.8 14.3zm27.6 91.2L97.6 95.3V70.1c-1.4 2.2-3.1 4.3-5.6 5.8v19.3l-25.6 9.4V67.4c-.8-1.3-1.4-2.5-2.1-3.8-1.1-2.1-2.2-4.1-3.4-5.9v47L36 94.6V52.4c-2.1 1.3-4 3-5.6 4.9v37.3L5.6 104.7V31.4l24.9-10.1v25.9c1.7-1.2 3.5-2.2 5.5-3V21.4l24.9 10.1V47c2.2 1.7 4 3.7 5.6 5.8v-21L92 21.4V65c.6-1.2 1.3-2.5 1.9-4 1-2.2 2.1-4.6 3.6-6.9V21.4l24.9 10.2v73.9z"/></g></g></svg>