<svg xmlns="http://www.w3.org/2000/svg"   
  fill="green" viewBox="-75 -75 200 200"><g data-name="08-algorithm"><path d="M45 40H3a3 3 0 0 1-3-3V11a3 3 0 0 1 3-3h3v2H3a1 1 0 0 0-1 1v26a1 1 0 0 0 1 1h42a1 1 0 0 0 1-1V11a1 1 0 0 0-1-1h-3V8h3a3 3 0 0 1 3 3v26a3 3 0 0 1-3 3z"/><path d="M15 39h2v4h-2z"/><path d="M13 47h-2v-2a3 3 0 0 1 3-3h10v2H14a1 1 0 0 0-1 1zM31 39h2v4h-2z"/><path d="M37 47h-2v-2a1 1 0 0 0-1-1h-5v-2h5a3 3 0 0 1 3 3z"/><path d="M9 46h30v2H9zM40 36H8a3 3 0 0 1-3-3V3a3 3 0 0 1 3-3h32a3 3 0 0 1 3 3v30a3 3 0 0 1-3 3zM8 2a1 1 0 0 0-1 1v30a1 1 0 0 0 1 1h32a1 1 0 0 0 1-1V3a1 1 0 0 0-1-1z"/><path d="M6 6h36v2H6zM9 3h2v2H9zM13 3h2v2h-2zM17 3h2v2h-2zM1 30h5v2H1zM42 30h5v2h-5zM24 18a4 4 0 1 1 4-4 4 4 0 0 1-4 4zm0-6a2 2 0 1 0 2 2 2 2 0 0 0-2-2zM16 32h-6a1 1 0 0 1-1-1v-4a1 1 0 0 1 1-1h6a1 1 0 0 1 1 1v4a1 1 0 0 1-1 1zm-5-2h4v-2h-4zM27 32h-6a1 1 0 0 1-1-1v-4a1 1 0 0 1 1-1h6a1 1 0 0 1 1 1v4a1 1 0 0 1-1 1zm-5-2h4v-2h-4zM38 32h-6a1 1 0 0 1-1-1v-4a1 1 0 0 1 1-1h6a1 1 0 0 1 1 1v4a1 1 0 0 1-1 1zm-5-2h4v-2h-4z"/><path d="M36 27h-2v-4a1 1 0 0 0-1-1h-9a1 1 0 0 1-1-1v-4h2v3h8a3 3 0 0 1 3 3z"/><path d="M14 27h-2v-4a3 3 0 0 1 3-3h9v2h-9a1 1 0 0 0-1 1z"/><path d="M23 21h2v6h-2z"/></g></svg>